<svg version="1.1" id="Layer_1" xmlns="http://www.w3.org/2000/svg" xmlns:xlink="http://www.w3.org/1999/xlink" x="0px" y="0px"
	 width="100%" viewBox="0 0 330 280" enable-background="new 0 0 330 280" xml:space="preserve">
<path fill="#FEFEFE" opacity="1.000000" stroke="none" 
	d="
M167.000000,281.000000 
	C111.333359,281.000000 56.166718,281.000000 1.000059,281.000000 
	C1.000039,187.666733 1.000039,94.333473 1.000020,1.000159 
	C110.999878,1.000106 220.999756,1.000106 330.999725,1.000053 
	C330.999817,94.333168 330.999817,187.666336 330.999908,280.999756 
	C276.500000,281.000000 222.000000,281.000000 167.000000,281.000000 
M16.580290,202.496796 
	C16.580290,207.931885 16.580290,213.366974 16.580290,218.819672 
	C26.523071,218.819672 35.814545,218.819672 45.777859,218.819672 
	C45.777859,188.832352 45.777859,159.024628 45.777859,127.751923 
	C47.791821,130.428543 48.886288,131.821671 49.916195,133.260986 
	C69.580223,160.741699 89.221947,188.238419 108.938919,215.681076 
	C109.904633,217.025192 111.479652,218.802246 112.830559,218.855118 
	C120.592041,219.158981 128.371521,219.003036 136.171478,219.003036 
	C136.171478,171.589844 136.171478,124.708160 136.171478,77.769478 
	C126.527328,77.769478 117.264229,77.769478 107.269302,77.769478 
	C107.269302,107.631203 107.269302,137.242325 107.269302,168.229889 
	C105.343643,165.716461 104.320450,164.454956 103.375862,163.137131 
	C83.786736,135.807877 64.224403,108.459335 44.575733,81.172981 
	C43.510250,79.693329 41.781132,77.747742 40.285606,77.679924 
	C32.529179,77.328133 24.748260,77.516266 16.580395,77.516266 
	C16.580395,119.242744 16.580395,160.370209 16.580290,202.496796 
M173.385422,145.887939 
	C164.980728,170.112961 156.576050,194.337997 148.072495,218.847992 
	C159.091904,218.847992 169.399384,218.847992 179.769974,218.847992 
	C183.276947,207.500305 186.746094,196.275009 190.188309,185.136826 
	C206.873154,185.136826 223.156311,185.136826 239.494308,185.136826 
	C243.024017,196.565186 246.487488,207.779099 249.839508,218.632172 
	C260.607758,218.632172 270.805542,218.632172 281.004242,218.632172 
	C281.004242,217.934814 281.092987,217.577087 280.991730,217.285355 
	C265.140472,171.621353 249.300171,125.953461 233.284378,80.347206 
	C232.834641,79.066521 230.523834,77.680763 229.047287,77.642632 
	C219.596558,77.398537 210.134903,77.612106 200.680435,77.456444 
	C198.104355,77.414032 196.850998,78.213356 196.012039,80.665611 
	C188.647568,102.192101 181.172516,123.680763 173.385422,145.887939 
M310.439087,221.098358 
	C321.022980,220.525909 327.341736,213.803223 327.049683,203.426025 
	C326.788757,194.157455 319.789093,187.420929 310.247620,187.255722 
	C300.610321,187.088852 293.181732,194.029846 292.936218,203.430817 
	C292.664917,213.819275 298.979034,220.527191 310.439087,221.098358 
z"/>
<path fill="#131B2E" opacity="1.000000" stroke="none" 
	d="
M16.580341,201.997238 
	C16.580395,160.370209 16.580395,119.242744 16.580395,77.516266 
	C24.748260,77.516266 32.529179,77.328133 40.285606,77.679924 
	C41.781132,77.747742 43.510250,79.693329 44.575733,81.172981 
	C64.224403,108.459335 83.786736,135.807877 103.375862,163.137131 
	C104.320450,164.454956 105.343643,165.716461 107.269302,168.229889 
	C107.269302,137.242325 107.269302,107.631203 107.269302,77.769478 
	C117.264229,77.769478 126.527328,77.769478 136.171478,77.769478 
	C136.171478,124.708160 136.171478,171.589844 136.171478,219.003036 
	C128.371521,219.003036 120.592041,219.158981 112.830559,218.855118 
	C111.479652,218.802246 109.904633,217.025192 108.938919,215.681076 
	C89.221947,188.238419 69.580223,160.741699 49.916195,133.260986 
	C48.886288,131.821671 47.791821,130.428543 45.777859,127.751923 
	C45.777859,159.024628 45.777859,188.832352 45.777859,218.819672 
	C35.814545,218.819672 26.523071,218.819672 16.580290,218.819672 
	C16.580290,213.366974 16.580290,207.931885 16.580341,201.997238 
z"/>
<path fill="#11192D" opacity="1.000000" stroke="none" 
	d="
M173.557831,145.534286 
	C181.172516,123.680763 188.647568,102.192101 196.012039,80.665611 
	C196.850998,78.213356 198.104355,77.414032 200.680435,77.456444 
	C210.134903,77.612106 219.596558,77.398537 229.047287,77.642632 
	C230.523834,77.680763 232.834641,79.066521 233.284378,80.347206 
	C249.300171,125.953461 265.140472,171.621353 280.991730,217.285355 
	C281.092987,217.577087 281.004242,217.934814 281.004242,218.632172 
	C270.805542,218.632172 260.607758,218.632172 249.839508,218.632172 
	C246.487488,207.779099 243.024017,196.565186 239.494308,185.136826 
	C223.156311,185.136826 206.873154,185.136826 190.188309,185.136826 
	C186.746094,196.275009 183.276947,207.500305 179.769974,218.847992 
	C169.399384,218.847992 159.091904,218.847992 148.072495,218.847992 
	C156.576050,194.337997 164.980728,170.112961 173.557831,145.534286 
M203.669067,141.112061 
	C201.579361,147.961914 199.489639,154.811752 197.342834,161.848770 
	C209.418777,161.848770 220.657883,161.848770 232.395996,161.848770 
	C226.623093,143.041702 220.964752,124.607857 215.306427,106.174019 
	C214.967270,106.206993 214.628113,106.239967 214.288956,106.272942 
	C210.828110,117.629677 207.367249,128.986420 203.669067,141.112061 
z"/>
<path fill="#513BF6" opacity="1.000000" stroke="none" 
	d="
M310.002930,221.098419 
	C298.979034,220.527191 292.664917,213.819275 292.936218,203.430817 
	C293.181732,194.029846 300.610321,187.088852 310.247620,187.255722 
	C319.789093,187.420929 326.788757,194.157455 327.049683,203.426025 
	C327.341736,213.803223 321.022980,220.525909 310.002930,221.098419 
z"/>
<path fill="#FCFCFC" opacity="1.000000" stroke="none" 
	d="
M203.787720,140.727600 
	C207.367249,128.986420 210.828110,117.629677 214.288956,106.272942 
	C214.628113,106.239967 214.967270,106.206993 215.306427,106.174019 
	C220.964752,124.607857 226.623093,143.041702 232.395996,161.848770 
	C220.657883,161.848770 209.418777,161.848770 197.342834,161.848770 
	C199.489639,154.811752 201.579361,147.961914 203.787720,140.727600 
z"/>
</svg>